<svg width="64" height="64" viewBox="0 0 64 64" fill="none" xmlns="http://www.w3.org/2000/svg">
  <rect x="2" y="2" width="60" height="60" rx="14" fill="#81B64C"/>
  <path
    d="M21 49H43V43.5H39.6V38.8C39.6 35.5 37.7 32.5 34.9 31.1C37.2 29.6 38.7 27 38.7 24.1C38.7 20.4 35.7 17.4 32 17.4C28.3 17.4 25.3 20.4 25.3 24.1C25.3 27 26.8 29.6 29.1 31.1C26.3 32.5 24.4 35.5 24.4 38.8V43.5H21V49ZM29.8 24.1C29.8 22.9 30.8 21.9 32 21.9C33.2 21.9 34.2 22.9 34.2 24.1C34.2 25.3 33.2 26.3 32 26.3C30.8 26.3 29.8 25.3 29.8 24.1Z"
    fill="white"
  />
</svg>
