<svg width="42" height="43" viewBox="0 0 42 43" fill="none" xmlns="http://www.w3.org/2000/svg">
<ellipse cx="2.41903" cy="2.52941" rx="2.41903" ry="2.52941" fill="black"/>
<ellipse cx="9.67612" cy="2.52941" rx="2.41903" ry="2.52941" fill="black"/>
<ellipse cx="16.9333" cy="2.52941" rx="2.41903" ry="2.52941" fill="black"/>
<ellipse cx="24.1904" cy="2.52941" rx="2.41903" ry="2.52941" fill="black"/>
<ellipse cx="31.4475" cy="2.52941" rx="2.41903" ry="2.52941" fill="black"/>
<ellipse cx="9.67612" cy="10.1177" rx="2.41903" ry="2.52941" fill="black"/>
<ellipse cx="16.9333" cy="10.1177" rx="2.41903" ry="2.52941" fill="black"/>
<ellipse cx="24.1904" cy="10.1177" rx="2.41903" ry="2.52941" fill="black"/>
<ellipse cx="31.4475" cy="10.1177" rx="2.41903" ry="2.52941" fill="black"/>
<ellipse cx="9.67612" cy="40.4706" rx="2.41903" ry="2.52941" fill="black"/>
<ellipse cx="16.9333" cy="40.4706" rx="2.41903" ry="2.52941" fill="black"/>
<ellipse cx="24.1904" cy="40.4706" rx="2.41903" ry="2.52941" fill="black"/>
<ellipse cx="31.4475" cy="40.4706" rx="2.41903" ry="2.52941" fill="black"/>
<ellipse cx="9.67612" cy="32.8823" rx="2.41903" ry="2.52941" fill="black"/>
<ellipse cx="16.9333" cy="32.8823" rx="2.41903" ry="2.52941" fill="black"/>
<ellipse cx="24.1904" cy="32.8823" rx="2.41903" ry="2.52941" fill="black"/>
<ellipse cx="31.4475" cy="32.8823" rx="2.41903" ry="2.52941" fill="black"/>
<ellipse cx="2.41903" cy="10.1176" rx="2.41903" ry="2.52941" fill="black"/>
<ellipse cx="2.41903" cy="17.7059" rx="2.41903" ry="2.52941" fill="black"/>
<ellipse cx="2.41903" cy="25.2941" rx="2.41903" ry="2.52941" fill="black"/>
<ellipse cx="2.41903" cy="17.7059" rx="2.41903" ry="2.52941" fill="black"/>
<ellipse cx="2.41903" cy="25.2941" rx="2.41903" ry="2.52941" fill="black"/>
<ellipse cx="9.67612" cy="17.7059" rx="2.41903" ry="2.52941" fill="black"/>
<ellipse cx="9.67612" cy="25.2941" rx="2.41903" ry="2.52941" fill="black"/>
<ellipse cx="9.67612" cy="17.7059" rx="2.41903" ry="2.52941" fill="black"/>
<ellipse cx="9.67612" cy="25.2941" rx="2.41903" ry="2.52941" fill="black"/>
<ellipse cx="2.41903" cy="32.8823" rx="2.41903" ry="2.52941" fill="black"/>
<ellipse cx="2.41903" cy="40.4706" rx="2.41903" ry="2.52941" fill="black"/>
<ellipse cx="38.7046" cy="2.52941" rx="2.41903" ry="2.52941" fill="black"/>
<ellipse cx="38.7046" cy="10.1177" rx="2.41903" ry="2.52941" fill="black"/>
<ellipse cx="38.7046" cy="17.7059" rx="2.41903" ry="2.52941" fill="black"/>
<ellipse cx="38.7046" cy="25.2941" rx="2.41903" ry="2.52941" fill="black"/>
<ellipse cx="31.4475" cy="17.7059" rx="2.41903" ry="2.52941" fill="black"/>
<ellipse cx="31.4475" cy="25.2941" rx="2.41903" ry="2.52941" fill="black"/>
<ellipse cx="38.7046" cy="32.8823" rx="2.41903" ry="2.52941" fill="black"/>
<ellipse cx="38.7046" cy="40.4706" rx="2.41903" ry="2.52941" fill="black"/>
</svg>
