<svg width="244" height="60" viewBox="0 0 244 60" fill="none" xmlns="http://www.w3.org/2000/svg">
<ellipse cx="2.41903" cy="18.5294" rx="2.41903" ry="2.52941" fill="black"/>
<ellipse cx="9.67612" cy="18.5294" rx="2.41903" ry="2.52941" fill="black"/>
<ellipse cx="16.9333" cy="18.5294" rx="2.41903" ry="2.52941" fill="black"/>
<ellipse cx="24.1904" cy="18.5294" rx="2.41903" ry="2.52941" fill="black"/>
<ellipse cx="31.4475" cy="18.5294" rx="2.41903" ry="2.52941" fill="black"/>
<ellipse cx="9.67612" cy="26.1177" rx="2.41903" ry="2.52941" fill="black"/>
<ellipse cx="16.9333" cy="26.1177" rx="2.41903" ry="2.52941" fill="black"/>
<ellipse cx="24.1904" cy="26.1177" rx="2.41903" ry="2.52941" fill="black"/>
<ellipse cx="31.4475" cy="26.1177" rx="2.41903" ry="2.52941" fill="black"/>
<ellipse cx="9.67612" cy="56.4706" rx="2.41903" ry="2.52941" fill="black"/>
<ellipse cx="16.9333" cy="56.4706" rx="2.41903" ry="2.52941" fill="black"/>
<ellipse cx="24.1904" cy="56.4706" rx="2.41903" ry="2.52941" fill="black"/>
<ellipse cx="31.4475" cy="56.4706" rx="2.41903" ry="2.52941" fill="black"/>
<ellipse cx="9.67612" cy="48.8823" rx="2.41903" ry="2.52941" fill="black"/>
<ellipse cx="16.9333" cy="48.8823" rx="2.41903" ry="2.52941" fill="black"/>
<ellipse cx="24.1904" cy="48.8823" rx="2.41903" ry="2.52941" fill="black"/>
<ellipse cx="31.4475" cy="48.8823" rx="2.41903" ry="2.52941" fill="black"/>
<ellipse cx="2.41903" cy="26.1176" rx="2.41903" ry="2.52941" fill="black"/>
<ellipse cx="2.41903" cy="33.7059" rx="2.41903" ry="2.52941" fill="black"/>
<ellipse cx="2.41903" cy="41.2941" rx="2.41903" ry="2.52941" fill="black"/>
<ellipse cx="2.41903" cy="33.7059" rx="2.41903" ry="2.52941" fill="black"/>
<ellipse cx="2.41903" cy="41.2941" rx="2.41903" ry="2.52941" fill="black"/>
<ellipse cx="9.67612" cy="33.7059" rx="2.41903" ry="2.52941" fill="black"/>
<ellipse cx="9.67612" cy="41.2941" rx="2.41903" ry="2.52941" fill="black"/>
<ellipse cx="9.67612" cy="33.7059" rx="2.41903" ry="2.52941" fill="black"/>
<ellipse cx="9.67612" cy="41.2941" rx="2.41903" ry="2.52941" fill="black"/>
<ellipse cx="2.41903" cy="48.8823" rx="2.41903" ry="2.52941" fill="black"/>
<ellipse cx="2.41903" cy="56.4706" rx="2.41903" ry="2.52941" fill="black"/>
<ellipse cx="38.7046" cy="18.5294" rx="2.41903" ry="2.52941" fill="black"/>
<ellipse cx="38.7046" cy="26.1177" rx="2.41903" ry="2.52941" fill="black"/>
<ellipse cx="38.7046" cy="33.7059" rx="2.41903" ry="2.52941" fill="black"/>
<ellipse cx="38.7046" cy="41.2941" rx="2.41903" ry="2.52941" fill="black"/>
<ellipse cx="31.4475" cy="33.7059" rx="2.41903" ry="2.52941" fill="black"/>
<ellipse cx="31.4475" cy="41.2941" rx="2.41903" ry="2.52941" fill="black"/>
<ellipse cx="38.7046" cy="48.8823" rx="2.41903" ry="2.52941" fill="black"/>
<ellipse cx="38.7046" cy="56.4706" rx="2.41903" ry="2.52941" fill="black"/>
<path d="M71.3035 59.696C67.9781 59.696 65.1941 59.0773 62.9515 57.84C60.7475 56.564 58.8528 54.882 57.2675 52.794L59.8775 50.648C61.3081 52.5427 62.9128 54.012 64.6915 55.056C66.5088 56.1 68.7515 56.622 71.4195 56.622C74.5515 56.622 76.9488 55.8873 78.6115 54.418C80.3128 52.91 81.1635 50.822 81.1635 48.154C81.1635 45.6793 80.4482 43.862 79.0175 42.702C77.5868 41.542 75.5762 40.6913 72.9855 40.15L69.3895 39.396C65.5228 38.6227 62.7195 37.3273 60.9795 35.51C59.2395 33.6927 58.3695 31.3727 58.3695 28.55C58.3695 26.7713 58.6788 25.2247 59.2975 23.91C59.9161 22.5567 60.7861 21.4353 61.9075 20.546C63.0675 19.6567 64.4401 18.98 66.0255 18.516C67.6495 18.052 69.4281 17.82 71.3615 17.82C74.3775 17.82 76.9295 18.3613 79.0175 19.444C81.1055 20.5267 82.8262 22.054 84.1795 24.026L81.5695 25.94C80.4481 24.316 79.0368 23.0787 77.3355 22.228C75.6728 21.3387 73.6235 20.894 71.1875 20.894C68.2875 20.894 65.9868 21.532 64.2855 22.808C62.6228 24.0453 61.7915 25.9207 61.7915 28.434C61.7915 30.8313 62.5455 32.5907 64.0535 33.712C65.5615 34.8333 67.5721 35.6453 70.0855 36.148L73.6815 36.902C77.7028 37.7913 80.5255 39.164 82.1495 41.02C83.7735 42.876 84.5855 45.196 84.5855 47.98C84.5855 51.692 83.4061 54.5727 81.0475 56.622C78.6888 58.6713 75.4408 59.696 71.3035 59.696ZM91.4503 59V56.1H97.3663V21.416H91.4503V18.516H106.762V21.416H100.846V56.1H106.762V59H91.4503ZM116.138 59V18.516H119.618V55.926H137.482V59H116.138ZM150.905 59L137.333 18.516H141.103L153.051 55.462H153.283L165.347 18.516H169.001L155.313 59H150.905ZM176.12 59V18.516H199.784V21.59H179.6V36.902H198.798V39.976H179.6V55.926H199.784V59H176.12ZM212.905 59H209.425V18.516H225.317C228.797 18.516 231.465 19.502 233.321 21.474C235.216 23.446 236.163 26.2107 236.163 29.768C236.163 32.9 235.39 35.4327 233.843 37.366C232.335 39.2993 230.131 40.4593 227.231 40.846L237.207 59H233.321L223.635 41.078H212.905V59ZM225.317 38.12C227.637 38.12 229.396 37.482 230.595 36.206C231.832 34.8913 232.451 33.2287 232.451 31.218V28.434C232.451 26.462 231.832 24.838 230.595 23.562C229.396 22.2473 227.637 21.59 225.317 21.59H212.905V38.12H225.317Z" fill="black"/>
</svg>
